<?xml version="1.0" encoding="UTF-8" standalone="no"?><!DOCTYPE svg PUBLIC "-//W3C//DTD SVG 1.1//EN" "http://www.w3.org/Graphics/SVG/1.1/DTD/svg11.dtd"><svg width="100%" height="100%" viewBox="0 0 3334 3334" version="1.1" xmlns="http://www.w3.org/2000/svg" xmlns:xlink="http://www.w3.org/1999/xlink" xml:space="preserve" xmlns:serif="http://www.serif.com/" style="fill-rule:evenodd;clip-rule:evenodd;stroke-miterlimit:2;"><rect id="Artboard1web" x="0" y="0" width="3333.33" height="3333.33" style="fill:none;"/><g id="Artboard1web1" serif:id="Artboard1web"><g><path d="M427.517,927.411l-118.496,-126.723l20.392,-31.636l150.308,173.127l-16.533,25.651l-169.214,-45.408l112.008,134.16l-16.533,25.651l-219.639,-65.565l20.281,-31.465l161.993,52.856l-110.739,-132.374l16.423,-25.48l169.749,47.206Z" style="fill-rule:nonzero;"/><path d="M636.184,762.378c-4.647,-1.398 -11.482,-5.419 -20.504,-12.062c1.221,25.199 -6.496,46.631 -23.152,64.295c-14.887,15.79 -31.565,24.532 -50.033,26.227c-18.469,1.694 -34.561,-3.925 -48.279,-16.858c-16.678,-15.725 -23.652,-34.278 -20.923,-55.659c2.73,-21.381 14.934,-43.568 36.614,-66.562l25.122,-26.645l-12.582,-11.864c-9.573,-9.025 -19.894,-13.351 -30.965,-12.977c-11.072,0.373 -21.864,6.136 -32.378,17.287c-9.212,9.77 -14.468,20.287 -15.768,31.551c-1.299,11.265 1.554,20.2 8.561,26.806l-25.96,27.534c-7.994,-7.537 -13.041,-17.655 -15.141,-30.355c-2.101,-12.699 -0.74,-25.956 4.083,-39.771c4.823,-13.814 12.724,-26.544 23.704,-38.189c17.399,-18.454 35.644,-28.562 54.734,-30.323c19.09,-1.761 36.913,4.791 53.47,19.656l73.718,69.506c14.705,13.864 28.167,23.015 40.387,27.453l2.368,2.233l-27.076,28.717Zm-63.72,25.766c8.095,-8.586 13.551,-18.821 16.368,-30.705c2.816,-11.885 2.3,-22.904 -1.548,-33.057l-32.863,-30.985l-20.237,21.464c-31.636,33.554 -37.635,59.588 -17.996,78.105c8.586,8.095 17.995,11.56 28.227,10.395c10.232,-1.164 19.582,-6.237 28.049,-15.217Z" style="fill-rule:nonzero;"/><path d="M667.435,488.932c-5.019,2.856 -10.107,6.381 -15.264,10.573c-19.154,15.572 -25.521,34.295 -19.1,56.169l98.563,121.241l-29.206,23.742l-138.861,-170.811l28.416,-23.1l16.516,19.348c-2.829,-23.046 4.545,-41.713 22.12,-56.002c5.684,-4.62 10.598,-7.391 14.742,-8.313l22.074,27.153Z" style="fill-rule:nonzero;"/><path d="M888.867,493.661c-5.485,-8.567 -12.973,-13.155 -22.461,-13.763c-9.489,-0.608 -23.355,2.513 -41.598,9.362c-18.243,6.85 -33.612,10.892 -46.107,12.129c-12.495,1.236 -23.12,-0.013 -31.874,-3.749c-8.754,-3.736 -16.056,-10.173 -21.907,-19.311c-9.728,-15.192 -11.531,-32.157 -5.409,-50.893c6.121,-18.737 19.177,-34.505 39.166,-47.304c21.017,-13.458 41.539,-18.948 61.566,-16.471c20.027,2.477 35.453,12.168 46.277,29.073l-31.868,20.406c-5.559,-8.681 -14.033,-13.804 -25.423,-15.369c-11.39,-1.565 -22.682,1.236 -33.876,8.404c-11.537,7.387 -18.952,15.678 -22.245,24.873c-3.292,9.194 -2.342,17.847 2.851,25.957c4.9,7.653 11.62,11.483 20.161,11.49c8.541,0.007 21.855,-3.283 39.942,-9.872c18.087,-6.589 33.615,-10.572 46.584,-11.951c12.968,-1.378 24.035,-0.129 33.2,3.746c9.165,3.875 16.929,10.782 23.292,20.719c10.605,16.563 12.483,34.083 5.632,52.562c-6.85,18.479 -20.841,34.484 -41.973,48.014c-14.849,9.508 -29.667,15.292 -44.454,17.352c-14.787,2.059 -28.424,0.443 -40.911,-4.848c-12.488,-5.291 -22.243,-13.419 -29.264,-24.385l31.697,-20.296c7.373,10.257 17.022,15.957 28.947,17.099c11.925,1.142 24.398,-2.456 37.419,-10.794c11.994,-7.679 20.063,-16.268 24.208,-25.767c4.145,-9.499 3.621,-18.303 -1.572,-26.413Z" style="fill-rule:nonzero;"/><path d="M1015.78,456.977l117.416,-52.905l12.62,28.009l-159.336,71.794l-11.367,-25.226l44.459,-196.991l-109.068,49.145l-12.787,-28.38l152.101,-68.535l10.949,24.299l-44.987,198.79Z" style="fill-rule:nonzero;"/><path d="M1151.05,143.828l16.336,50.739l39.12,-12.595l8.916,27.694l-39.119,12.595l41.838,129.946c2.702,8.392 6.471,14.125 11.308,17.198c4.837,3.074 11.451,3.26 19.843,0.558c4.131,-1.33 9.563,-3.934 16.294,-7.811l9.353,29.049c-8.594,5.617 -17.345,9.859 -26.253,12.727c-16.009,5.155 -29.64,4.2 -40.891,-2.864c-11.251,-7.065 -19.745,-19.505 -25.482,-37.322l-41.837,-129.946l-38.152,12.283l-8.916,-27.693l38.151,-12.284l-16.336,-50.739l35.827,-11.535Z" style="fill-rule:nonzero;"/><path d="M1450.17,354.427c-2.922,-3.874 -6.059,-11.157 -9.41,-21.848c-13.909,21.048 -32.801,33.774 -56.677,38.179c-21.341,3.938 -39.961,1.132 -55.86,-8.416c-15.898,-9.549 -25.558,-23.593 -28.979,-42.133c-4.159,-22.542 1.181,-41.63 16.019,-57.263c14.839,-15.634 37.797,-26.318 68.875,-32.052l36.014,-6.644l-3.138,-17.007c-2.387,-12.938 -8.157,-22.528 -17.308,-28.77c-9.151,-6.242 -21.263,-7.973 -36.335,-5.192c-13.205,2.437 -23.66,7.814 -31.366,16.132c-7.707,8.318 -10.686,17.212 -8.939,26.682l-37.213,6.866c-1.994,-10.804 -0.085,-21.949 5.727,-33.434c5.811,-11.485 14.744,-21.375 26.8,-29.667c12.055,-8.293 25.952,-13.892 41.691,-16.796c24.943,-4.602 45.634,-1.971 62.074,7.891c16.439,9.863 26.944,25.682 31.513,47.458l18.384,99.637c3.667,19.874 9.117,35.212 16.351,46.015l0.591,3.201l-38.814,7.161Zm-66.628,-16.877c11.604,-2.141 22.055,-7.173 31.351,-15.094c9.297,-7.922 15.393,-17.116 18.289,-27.58l-8.195,-44.417l-29.01,5.353c-45.35,8.367 -65.577,25.823 -60.679,52.366c2.141,11.604 7.682,19.96 16.624,25.069c8.942,5.108 19.482,6.542 31.62,4.303Z" style="fill-rule:nonzero;"/><path d="M1574.49,68.308l3.335,53.199l41.016,-2.57l1.82,29.036l-41.016,2.571l8.539,136.248c0.551,8.799 2.792,15.283 6.723,19.454c3.931,4.17 10.295,5.98 19.094,5.428c4.332,-0.271 10.237,-1.457 17.716,-3.556l1.909,30.458c-9.712,3.326 -19.238,5.282 -28.579,5.868c-16.785,1.052 -29.76,-3.231 -38.925,-12.849c-9.164,-9.619 -14.332,-23.768 -15.503,-42.449l-8.539,-136.248l-40.001,2.507l-1.82,-29.036l40.001,-2.507l-3.334,-53.2l37.564,-2.354Z" style="fill-rule:nonzero;"/><path d="M1914.07,300.242c1.313,-10.087 -1.468,-18.416 -8.341,-24.987c-6.873,-6.57 -19.496,-13.102 -37.869,-19.595c-18.372,-6.493 -32.739,-13.286 -43.101,-20.378c-10.361,-7.092 -17.691,-14.885 -21.989,-23.377c-4.298,-8.492 -5.747,-18.118 -4.347,-28.878c2.327,-17.889 11.86,-32.036 28.601,-42.442c16.741,-10.405 36.881,-14.077 60.418,-11.016c24.748,3.22 43.991,12.22 57.73,27c13.738,14.781 19.312,32.125 16.723,52.031l-37.526,-4.882c1.33,-10.222 -1.862,-19.596 -9.575,-28.122c-7.713,-8.526 -18.16,-13.646 -31.341,-15.361c-13.584,-1.767 -24.595,-0.19 -33.031,4.731c-8.437,4.921 -13.276,12.156 -14.518,21.705c-1.172,9.012 1.509,16.268 8.042,21.768c6.534,5.5 18.844,11.547 36.93,18.14c18.086,6.592 32.536,13.533 43.351,20.821c10.814,7.288 18.483,15.364 23.007,24.227c4.523,8.863 6.024,19.146 4.501,30.847c-2.536,19.503 -12.371,34.124 -29.504,43.863c-17.133,9.74 -38.141,12.991 -63.024,9.754c-17.485,-2.274 -32.55,-7.38 -45.195,-15.316c-12.645,-7.937 -22.046,-17.948 -28.202,-30.032c-6.156,-12.085 -8.394,-24.584 -6.714,-37.496l37.324,4.855c-0.955,12.596 2.765,23.167 11.159,31.714c8.394,8.546 20.258,13.816 35.591,15.811c14.123,1.837 25.826,0.453 35.111,-4.153c9.284,-4.605 14.547,-11.682 15.789,-21.232Z" style="fill-rule:nonzero;"/><path d="M2107.57,122.452l-12.972,51.701l39.861,10.002l-7.08,28.218l-39.861,-10.001l-33.223,132.411c-2.145,8.551 -1.979,15.41 0.501,20.577c2.479,5.167 7.994,8.823 16.545,10.968c4.21,1.056 10.197,1.72 17.96,1.989l-7.427,29.6c-10.264,0.222 -19.934,-0.806 -29.012,-3.084c-16.313,-4.093 -27.375,-12.112 -33.188,-24.058c-5.812,-11.947 -6.441,-26.997 -1.886,-45.152l33.223,-132.411l-38.875,-9.754l7.08,-28.219l38.875,9.754l12.972,-51.701l36.507,9.16Z" style="fill-rule:nonzero;"/><path d="M2151.46,300.031c7.916,-20.06 18.978,-36.546 33.187,-49.457c14.208,-12.911 30.064,-20.944 47.566,-24.098c17.503,-3.154 35.275,-1.171 53.317,5.948c27.883,11.003 46.626,29.555 56.23,55.654c9.604,26.099 8.083,55.172 -4.563,87.218l-0.971,2.46c-7.867,19.934 -18.74,36.312 -32.622,49.134c-13.881,12.821 -29.661,20.847 -47.34,24.078c-17.679,3.23 -35.728,1.211 -54.148,-6.058c-27.757,-10.953 -46.437,-29.48 -56.041,-55.579c-9.604,-26.099 -8.133,-55.046 4.414,-86.839l0.971,-2.461Zm33.557,18.055c-8.962,22.709 -10.889,43.019 -5.781,60.928c5.108,17.909 16.494,30.349 34.157,37.319c17.789,7.021 34.67,5.626 50.644,-4.183c15.973,-9.809 28.913,-27.267 38.821,-52.373c8.862,-22.458 10.714,-42.761 5.554,-60.909c-5.159,-18.148 -16.57,-30.708 -34.234,-37.678c-17.284,-6.821 -33.939,-5.446 -49.964,4.123c-16.024,9.57 -29.09,27.161 -39.197,52.773Z" style="fill-rule:nonzero;"/><path d="M2373.87,521.261l-33.171,-17.786l147.67,-275.408l33.171,17.785l-147.67,275.409Z" style="fill-rule:nonzero;"/><path d="M2539.47,626.972c0.679,-4.805 3.619,-12.17 8.82,-22.094c-24.723,5.021 -47.076,0.636 -67.058,-13.154c-17.861,-12.326 -29.027,-27.489 -33.497,-45.488c-4.47,-17.999 -1.351,-34.757 9.358,-50.274c13.019,-18.865 30.303,-28.567 51.851,-29.105c21.548,-0.538 45.326,8.168 71.336,26.118l30.141,20.801l9.822,-14.233c7.473,-10.828 10.187,-21.686 8.142,-32.573c-2.045,-10.887 -9.374,-20.683 -21.988,-29.389c-11.052,-7.627 -22.243,-11.23 -33.574,-10.81c-11.332,0.42 -19.732,4.593 -25.202,12.518l-31.145,-21.494c6.24,-9.042 15.478,-15.562 27.713,-19.56c12.235,-3.999 25.546,-4.66 39.931,-1.983c14.385,2.677 28.164,8.56 41.337,17.651c20.875,14.406 33.627,30.911 38.257,49.515c4.629,18.604 0.85,37.213 -11.338,55.829l-57.548,83.388c-11.479,16.633 -18.487,31.325 -21.024,44.076l-1.849,2.679l-32.485,-22.418Zm-35.112,-59.087c9.712,6.703 20.655,10.547 32.829,11.532c12.174,0.986 22.988,-1.192 32.442,-6.533l25.654,-37.173l-24.28,-16.756c-37.955,-26.193 -64.597,-28.183 -79.928,-5.968c-6.703,9.712 -8.704,19.537 -6.004,29.475c2.699,9.938 9.128,18.413 19.287,25.423Z" style="fill-rule:nonzero;"/><path d="M2814.22,616.274c-3.583,-4.529 -7.837,-9.025 -12.762,-13.488c-18.292,-16.576 -37.762,-20.036 -58.413,-10.378l-104.925,115.779l-27.889,-25.275l147.824,-163.116l27.136,24.592l-16.626,19.254c22.353,-6.284 41.921,-1.821 58.705,13.389c5.427,4.918 8.91,9.356 10.449,13.314l-23.499,25.929Z" style="fill-rule:nonzero;"/><path d="M2843.19,835.954c7.636,-6.721 11.035,-14.817 10.197,-24.288c-0.837,-9.472 -6.024,-22.704 -15.56,-39.697c-9.536,-16.994 -15.862,-31.572 -18.979,-43.736c-3.117,-12.163 -3.492,-22.854 -1.127,-32.073c2.366,-9.22 7.621,-17.414 15.767,-24.582c13.541,-11.919 30.036,-16.273 49.484,-13.063c19.448,3.21 37.014,13.724 52.696,31.541c16.488,18.734 25.026,38.187 25.614,58.358c0.588,20.171 -6.652,36.887 -21.721,50.15l-25.001,-28.407c7.738,-6.81 11.517,-15.963 11.337,-27.459c-0.18,-11.496 -4.661,-22.232 -13.443,-32.21c-9.051,-10.284 -18.37,-16.355 -27.958,-18.216c-9.588,-1.861 -17.996,0.39 -25.225,6.753c-6.821,6.004 -9.588,13.227 -8.301,21.67c1.288,8.443 6.559,21.104 15.814,37.984c9.255,16.879 15.547,31.623 18.875,44.233c3.329,12.609 3.773,23.737 1.332,33.384c-2.441,9.647 -8.091,18.368 -16.949,26.164c-14.763,12.994 -31.796,17.506 -51.1,13.537c-19.304,-3.97 -37.245,-15.373 -53.823,-34.208c-11.649,-13.236 -19.613,-27.006 -23.89,-41.31c-4.278,-14.303 -4.749,-28.028 -1.412,-41.174c3.337,-13.145 9.892,-24.019 19.667,-32.622l24.867,28.254c-9.021,8.843 -13.192,19.244 -12.513,31.204c0.679,11.96 6.127,23.744 16.342,35.351c9.41,10.69 19.123,17.364 29.14,20.021c10.018,2.656 18.641,0.804 25.87,-5.559Z" style="fill-rule:nonzero;"/><path d="M2973.14,939.208l-33.441,-6.689l-65.217,41.518l-20.213,-31.751l263.616,-167.818l20.213,31.751l-159.44,101.499l31.24,3.99l97.918,18.942l24.582,38.615l-123.571,-22.87l-56.773,149.496l-23.709,-37.243l44.795,-119.44Z" style="fill-rule:nonzero;"/><path d="M2981.89,1158.91l-17.039,-33.561l196.284,-99.655l17.04,33.56l-196.285,99.656Zm229.928,-162.371c5.442,-2.763 10.882,-3.433 16.32,-2.011c5.438,1.422 9.814,5.399 13.13,11.93c3.316,6.53 3.959,12.44 1.929,17.73c-2.03,5.29 -5.766,9.316 -11.208,12.08c-5.442,2.763 -10.837,3.372 -16.185,1.828c-5.347,-1.544 -9.679,-5.582 -12.995,-12.113c-3.315,-6.53 -4.003,-12.38 -2.064,-17.547c1.94,-5.168 5.631,-9.134 11.073,-11.897Z" style="fill-rule:nonzero;"/></g><path d="M1053.83,2630.8l990.127,-385.689l-1062.08,-402.959l1062.08,-385.689l-990.127,-409.675l-0,-242.735l1575.38,662.004l-1049.61,380.892l1050.57,397.203l-1576.34,629.383l-0,-242.735Z" style="fill-rule:nonzero;"/><path d="M1099.7,2495.88l990.128,-385.69l-1062.09,-402.959l1062.09,-385.689l585.25,9.594l-1049.61,380.892l1050.57,397.203l-1576.34,629.384l-0,-242.735Z" style="fill:#fff;fill-rule:nonzero;stroke:#000;stroke-width:8.68px;"/></g></svg>